<svg width="42" height="74" viewBox="0 0 42 74" fill="none" xmlns="http://www.w3.org/2000/svg">
<path d="M5.0001 41.8198C7.76152 41.8198 10.0001 39.5812 10.0001 36.8198C10.0001 34.0584 7.76152 31.8198 5.0001 31.8198L5.0001 36.8198L5.0001 41.8198ZM1.46447 33.2843C-0.488156 35.2369 -0.488156 38.4027 1.46447 40.3553L33.2843 72.1751C35.2369 74.1278 38.4027 74.1278 40.3553 72.1751C42.308 70.2225 42.308 67.0567 40.3553 65.1041L12.0711 36.8198L40.3553 8.53553C42.308 6.5829 42.308 3.41708 40.3553 1.46446C38.4027 -0.488164 35.2369 -0.488164 33.2843 1.46446L1.46447 33.2843ZM5.0001 36.8198L5.0001 31.8198L5 31.8198L5 36.8198L5 41.8198L5.0001 41.8198L5.0001 36.8198Z" fill="#F7EFE5"/>
</svg>
