<svg width="218" height="82" viewBox="0 0 218 82" fill="none" xmlns="http://www.w3.org/2000/svg">
<path d="M23.8668 43.6364C26.0486 43.6216 28.2305 43.633 30.4121 43.6706C30.5755 47.457 30.4054 52.5238 30.42 56.452C32.2414 54.9772 32.8703 53.2985 35.6829 52.8423C49.3238 50.6295 52.2169 66.5529 46.3217 75.6168C43.0986 79.6816 37.5161 80.8105 32.8753 78.3246C31.7107 77.7008 30.909 76.7529 30.0292 75.7869C30.1657 76.9078 30.1969 77.3998 30.1768 78.5075C28.1548 78.57 25.863 78.5193 23.8197 78.5215C23.7382 76.3276 23.7956 73.6885 23.7946 71.476L23.795 58.0984L23.792 48.9911C23.7925 47.3785 23.7318 45.193 23.8668 43.6364ZM37.771 74.3007C39.2964 73.7503 40.4109 73.0903 41.0895 71.5015C42.711 67.7056 42.9493 60.5159 38.7246 58.3477C37.6355 57.7886 35.5322 57.7805 34.3196 57.9303C29.8428 59.1853 29.9937 64.4579 30.269 68.2083C30.5575 72.1385 33.6506 75.2813 37.771 74.3007Z" fill="#F7EFE5"/>
<path d="M76.403 10.3125C86.1704 10.6275 85.3314 16.2625 85.36 23.9155C85.387 28.403 85.3814 32.8906 85.3431 37.3781C83.5072 37.1956 80.2204 37.283 78.2529 37.2831C78.1227 36.223 78.1683 34.5983 78.1111 33.4791C77.947 30.2698 78.0197 27.0467 77.9781 23.8335C77.9556 22.0582 78.0324 20.3791 77.7838 18.6144C77.358 15.5908 72.3586 15.4754 70.7447 17.1928C69.146 18.8939 69.4314 23.5476 69.4148 25.9119L69.3886 37.281C67.1602 37.2217 64.8113 37.2591 62.5734 37.2626C62.4639 35.9341 62.4982 33.8074 62.4832 32.4201L62.3924 22.7765C62.3586 21.3618 62.368 19.5169 61.9871 18.1761C61.2419 15.553 56.8999 15.6028 55.2669 17.2793C54.686 17.8868 54.288 18.6458 54.1188 19.4693C53.9031 20.5177 53.8927 24.2244 53.8765 25.4647C53.7895 29.383 53.7691 33.3025 53.8153 37.2214C51.8754 37.3447 48.8422 37.2527 46.8189 37.2566C46.7149 35.7446 46.7644 33.8639 46.7645 32.3228L46.7655 24.1615L46.7627 16.2062C46.7614 14.5774 46.7148 12.6971 46.8265 11.089C48.2566 11.0792 52.0127 10.9786 53.2871 11.1479C53.6219 11.5951 53.4891 13.7209 53.5008 14.4944C54.4384 13.6053 55.1361 12.4833 56.215 11.7306C59.1244 9.70064 63.9031 9.92947 66.6347 12.1501C67.4507 12.8133 67.9421 13.5663 68.5046 14.4322C68.8951 14.1503 69.7383 13.1728 70.116 12.7917C72.0999 10.7896 73.77 10.5388 76.403 10.3125Z" fill="#F7EFE5"/>
<path d="M198.603 1.17505C199.375 1.12388 200.157 1.12138 200.933 1.12104C206.721 1.11841 211.223 5.40884 211.032 11.3038C210.994 12.4738 211.028 13.824 211.027 15.0152V25.3231C211.029 28.5368 210.938 31.9026 211.563 35.0637C212.216 38.3654 215.298 38.4103 217.957 38.4114C218.03 40.2129 217.986 42.3417 217.992 44.1676C215.685 44.377 212.562 44.5923 211.923 47.3217C211.056 51.0167 211.328 54.9182 211.276 58.6881C211.227 62.316 211.067 65.9493 211.105 69.5803C211.28 74.7595 210.481 78.6318 205.354 81.084C203.159 81.8498 201.035 81.8669 198.725 81.7939C198.616 80.0543 198.621 78.8764 198.716 77.1328C205.235 76.2767 204.342 71.83 204.362 66.6253C204.357 63.2538 204.401 59.8823 204.492 56.5121C204.591 51.2339 204.227 45.2643 209.238 42.0981C209.586 41.8782 209.931 41.6406 210.277 41.4163C207.348 39.7804 205.759 38.3944 204.847 34.9981C204.04 31.9989 204.321 29.056 204.296 25.9889C204.259 21.4102 204.418 16.8272 204.308 12.2493C204.239 9.51977 203.531 7.03343 200.667 6.14991C200.143 5.98809 199.136 5.76906 198.758 5.42149C198.353 4.57751 198.551 2.21287 198.603 1.17505Z" fill="#F7EFE5"/>
<path d="M16.5725 1.29337C20.8808 1.14955 19.7476 1.91216 19.6988 6.00019C13.4968 6.43289 13.5138 11.199 13.4595 16.0533C13.438 18.9118 13.4359 21.7706 13.4534 24.6291C13.4682 27.1338 13.514 29.6071 13.4174 32.1105C13.2348 36.8362 11.7592 39.4276 7.54165 41.4683C9.37804 42.4949 10.8561 43.3698 11.926 45.3049C13.6466 48.4167 13.2991 52.3204 13.4261 55.7982C13.5386 59.0949 13.5243 62.4021 13.7147 65.6953C14.0246 71.0582 12.4199 76.4532 19.5527 77.1753C19.7589 78.3901 19.7358 80.7412 19.6576 81.982C18.5488 82.0469 16.5754 81.925 15.466 81.7951C11.934 81.3381 9.0248 79.2253 7.80989 75.8222C7.00541 73.662 7.11446 71.4942 7.01009 69.2341C6.68613 62.2157 7.17314 55.1113 6.44137 48.1205C6.17986 45.6223 4.39977 44.6233 2.08765 44.4468C1.54867 44.4057 0.680851 44.431 0.236967 44.1146C-0.169553 43.3676 0.0624792 39.6758 0.0981335 38.5482C0.983793 38.4929 1.89344 38.4639 2.77266 38.347C3.92848 38.1933 5.33961 37.6751 5.97373 36.6256C8.0028 33.2679 6.17815 15.0249 7.13144 9.61347C7.42098 7.97042 8.0069 6.35791 9.0493 5.03918C10.9159 2.67785 13.6596 1.62328 16.5725 1.29337Z" fill="#F7EFE5"/>
<path d="M102.575 10.5475C104.987 10.6112 108.043 10.7934 110.178 11.9801C114.011 14.1121 113.802 17.8718 113.801 21.6616L113.799 28.8072C113.799 31.8758 113.634 34.3638 114.455 37.3367C113.146 37.3209 108.755 37.4629 107.809 37.1644C107.417 36.5397 107.46 34.2967 107.436 33.4319C106.384 35.078 104.879 36.3856 103.102 37.198C98.5995 39.214 92.2492 37.5343 90.1517 32.7602C87.9009 25.2362 93.6542 22.5491 99.9138 21.583C101.716 21.2712 103.596 21.1567 105.359 20.6707C108.239 19.8761 107.411 17.0249 105.112 16.2168C103.115 15.5148 100.966 15.4769 98.9915 16.2745C97.4932 16.8797 97.3967 17.9338 96.8865 19.2949C94.4632 19.2581 92.7829 19.1266 90.3455 18.9073C90.915 12.4176 96.9886 10.5143 102.575 10.5475ZM98.0627 31.8352C100.818 33.3086 106.142 33.0014 106.979 29.1255C107.128 28.4373 107.342 25.4796 107.111 24.8777L106.833 24.8542C104.049 25.6807 98.1455 26.0038 96.8944 28.267C96.5924 28.8243 96.5278 29.4798 96.7155 30.0852C96.9434 30.8395 97.4549 31.3706 98.0627 31.8352Z" fill="#F7EFE5"/>
<path d="M150.808 0.0700047C151.494 0.0165582 152.28 -0.0850912 152.93 0.138495C153.185 0.432508 153.276 12.4296 153.266 13.7486C153.518 13.5308 153.707 13.3288 153.935 13.0883C155.777 11.0884 157.575 10.2508 160.287 10.1862C164.018 10.0974 169.027 11.7651 169.724 15.9678C170.192 18.7924 170.035 22.1515 170.037 25.0602C170.031 29.1291 170.055 33.1979 170.108 37.2664C168.216 37.3278 164.943 37.3615 163.126 37.2446C163 35.6523 163.07 33.35 163.073 31.68C163.095 28.2151 163.088 24.7502 163.053 21.2854C163.016 20.0662 162.736 18.136 161.908 17.2249C159.868 14.9155 154.02 15.6148 153.508 19.0368C152.62 24.9925 153.66 31.3619 153.159 37.3304C150.916 37.2956 148.673 37.2798 146.429 37.2832C146.272 35.6103 146.322 33.4133 146.314 31.6946L146.264 23.6891L146.195 0.136099C147.599 0.024078 149.373 0.0701187 150.808 0.0700047Z" fill="#F7EFE5"/>
<path d="M145.976 52.4896C154.044 51.8339 158.839 57.2293 159.36 65.0122C159.405 65.6909 159.644 67.0061 159.229 67.5456C157.95 67.6976 154.475 67.5858 153.068 67.5777L141.365 67.561C141.371 68.5717 141.423 69.0575 141.696 70.0236C142.9 74.2954 148.657 75.9317 151.646 72.4742C151.913 72.1642 152.22 71.5016 152.412 71.1159C153.666 70.9928 156.34 71.0753 157.722 71.0888L159.032 71.1315C156.959 80.0977 145.633 81.8555 139.099 76.7196C133.445 72.2751 133.046 61.9605 137.591 56.6088C139.723 54.0985 142.705 52.7378 145.976 52.4896ZM141.536 63.2539C143.836 63.2959 146.136 63.305 148.436 63.2812C149.689 63.2758 151.348 63.3181 152.57 63.2421C151.897 58.5737 150.189 57.4901 145.587 57.9214C142.646 58.6268 141.881 60.4652 141.536 63.2539Z" fill="#F7EFE5"/>
<path d="M61.9603 52.7016C63.0899 52.6354 64.2849 52.5578 65.4146 52.6418C73.2597 53.225 76.6984 60.7732 76.2372 67.7836C71.7055 67.6638 67.1352 67.7676 62.6013 67.713C61.1913 67.6961 59.751 67.6998 58.3426 67.755C58.387 68.5987 58.413 69.4669 58.6898 70.2663C60.3763 75.1336 66.8615 76.1961 69.2309 71.251C70.5437 71.1238 71.9087 71.1609 73.2303 71.1742C73.9618 71.1684 74.9647 71.126 75.6647 71.2419L75.7892 71.4427C75.7676 72.3418 75.0808 73.6871 74.6174 74.4501C72.8855 77.3017 69.7738 79.1387 66.4834 79.4946C65.9898 79.5481 65.4947 79.5367 65.0063 79.5708C57.7225 80.0794 51.9436 75.0232 51.4211 67.7635C50.8788 60.228 54.3128 54.3904 61.9603 52.7016ZM58.4772 63.3552C60.717 63.3703 62.9569 63.3713 65.1967 63.3581C66.5494 63.3565 68.0216 63.3846 69.3645 63.3435C68.9392 59.3372 67.1333 57.4931 63.0184 57.9277C59.8594 58.3732 58.9113 60.4976 58.4772 63.3552Z" fill="#F7EFE5"/>
<path d="M128.772 10.3086C133.802 9.55856 140.328 12.0922 141.249 17.556C141.3 17.8652 141.284 17.9754 141.108 18.1983C140.146 18.3546 136.015 18.2985 134.812 18.307C134.659 17.955 134.449 17.4253 134.257 17.1039C132.68 14.4603 128.533 14.6424 126.143 15.9678C124.054 19.2189 127.765 19.6275 129.957 20.2961C134.483 21.6778 142.1 22.0616 142.273 28.3266C142.334 30.479 141.573 33.1327 140.042 34.7137C137.42 37.4073 134.185 37.9112 130.601 38.0017C129.556 37.9952 128.508 38.0008 127.464 37.9463C122.368 37.6806 118.539 34.9426 118.013 29.6328C118.484 29.5756 124.237 29.1016 124.578 29.503C125.215 30.2493 125.904 31.5829 126.743 32.0957C129.167 33.5762 135.54 33.6016 135.081 29.5045C135.005 28.8231 134.697 28.2776 134.076 28.0227C129.098 25.9792 119.376 26.8622 118.589 19.6741C118.015 13.2734 123.197 10.7084 128.772 10.3086Z" fill="#F7EFE5"/>
<path d="M92.3665 52.6911C99.4414 52.3314 103.582 54.3601 103.458 62.1683C103.37 67.6559 103.531 73.3281 103.452 78.8427C102.094 78.8623 98.3862 79.0777 97.2696 78.7761C97.0294 78.7111 96.9112 78.6684 96.8187 78.4202C96.4929 77.5461 96.6686 76.0547 96.6607 75.1001C96.6394 72.519 97.0201 61.426 96.0008 59.8666C95.4623 59.0428 94.3732 58.5722 93.4361 58.4108C91.7059 58.1129 90.1698 58.4238 88.7391 59.4133C87.9278 60.2132 87.7146 60.576 87.4183 61.7184C86.7926 64.1308 87.0116 66.7651 86.988 69.2455C86.9577 72.4418 87.0633 75.67 86.9626 78.8613C84.6925 78.8186 82.4064 78.8626 80.1318 78.8454C79.9822 76.622 80.0298 53.9099 80.2202 53.5663C81.2033 53.2187 85.6162 53.2223 86.6375 53.4682C87.019 53.91 86.8769 55.7932 86.8789 56.5498C87.3854 56.1701 87.8769 55.6063 88.3288 55.1494C89.7286 53.7336 90.5732 53.3239 92.3665 52.6911Z" fill="#F7EFE5"/>
<path d="M121.187 52.5857C123.751 52.0511 127.788 53.2681 129.527 55.2948C130.349 56.2514 130.905 57.4058 131.143 58.6437C131.429 60.129 131.373 65.7784 131.331 67.6586C131.258 71.0017 131.505 75.6103 131.276 78.8313C129.118 78.7283 126.724 78.7602 124.545 78.7493C124.334 74.7815 124.667 70.6195 124.514 66.6389C124.418 64.13 125.27 59.3324 122.079 58.5511C119.823 57.9987 118.285 58.1053 116.479 59.6774C114.864 61.4497 115.062 65.4375 115.06 67.7612L115.091 75.1785C115.097 76.0707 115.146 77.7225 114.936 78.4749C114.772 79.0625 108.898 78.9532 108.463 78.7121C108.185 78.2514 108.261 56.0953 108.369 53.3581C110.311 53.2544 112.855 53.313 114.825 53.3051C114.901 54.3433 114.896 55.5723 114.916 56.6277C116.756 54.5402 118.19 52.8194 121.187 52.5857Z" fill="#F7EFE5"/>
<path d="M183.003 46.0834C184.311 45.9132 188.051 45.9999 189.569 46.0034C189.687 48.063 189.593 51.029 189.585 53.1653C190.995 53.3048 193.115 53.2325 194.575 53.2186C194.616 54.8139 194.625 56.4099 194.603 58.0056C193.116 58.1029 191.19 57.9885 189.601 58.0429L189.588 66.7082C189.587 68.0945 189.388 71.7186 190.051 72.7406C191.343 73.7134 192.958 73.4358 194.505 73.3149C194.552 74.9353 194.499 76.719 194.483 78.3509C194.162 78.5005 193.717 78.5104 193.348 78.5425C190.598 78.7765 186.855 79.0328 184.606 77.1874C182.509 75.4654 182.947 71.7769 182.869 69.3132C182.749 65.6273 183.064 61.7517 182.775 58.082C181.571 57.9749 179.88 58.0533 178.573 57.9896C178.401 56.7263 178.527 54.6314 178.594 53.3175C179.717 53.1715 181.554 53.2518 182.85 53.1711C182.911 51.9732 182.694 46.8416 183.003 46.0834Z" fill="#F7EFE5"/>
<path d="M165.177 46.0354C166.693 45.9333 170.324 45.9833 171.844 46.0319C171.987 47.6216 171.865 51.369 171.875 53.1601C173.301 53.2956 175.3 53.2232 176.771 53.2078L176.837 58.0411C175.181 58.0236 173.527 58.0197 171.871 58.0295C172.04 62.6715 171.671 67.6388 171.958 72.3034C173.197 73.9439 174.804 73.4923 176.619 73.3272L176.623 77.6379C176.642 77.9586 176.635 77.9829 176.561 78.2985C176.24 78.5993 173.294 78.6909 172.668 78.7037C164.583 78.8698 165.13 74.0839 165.116 68.0458L165.129 58.0092C163.744 57.9883 162.303 58.0108 160.914 58.0122C160.841 56.5474 160.924 54.7357 161 53.2729C162.429 53.2008 163.563 53.319 165.096 53.1808C165.138 50.8024 165.059 48.4126 165.177 46.0354Z" fill="#F7EFE5"/>
</svg>
